# ProBuilder 4.2.3
# https://unity3d.com/unity/features/worldbuilding/probuilder
# 11/30/2021 6:32:42 PM

mtllib ./Door.mtl
o Door

g Door
v 1.845938E-07 0 0.3484846 1 0.522 0.106
v -1 0 0.3484842 1 0.522 0.106
v 1.845938E-07 3 0.3484846 1 0.522 0.106
v -1 3 0.3484842 1 0.522 0.106
v -3 0 0.3484845 1 0.522 0.106
v -4.000001 0 0.3484846 1 0.522 0.106
v -3 3 0.3484845 1 0.522 0.106
v -4.000001 3 0.3484846 1 0.522 0.106
v 1.845938E-07 4 0.3484846 1 0.522 0.106
v -1 4 0.3484842 1 0.522 0.106
v -3 4 0.3484845 1 0.522 0.106
v -4.000001 4 0.3484846 1 0.522 0.106
v -1 0 -0.5 1 1 1
v 0 0 -0.5 1 1 1
v -1 3 -0.5 1 1 1
v 0 3 -0.5 1 1 1
v -4 0 -0.5 1 1 1
v -3 0 -0.5 1 1 1
v -4 3 -0.5 1 1 1
v -3 3 -0.5 1 1 1
v -1 4 -0.5 1 1 1
v 0 4 -0.5 1 1 1
v -4 4 -0.5 1 1 1
v -3 4 -0.5 1 1 1
v -3 3 0 1 1 1
v -1 3 0 1 1 1
v -2.051822 0 -0.5000002 1 1 1
v -2.051822 0 -1.630996E-07 1 1 1
v -2.051822 3 -0.5000002 1 1 1
v -2.051822 3 -1.630996E-07 1 1 1
v -0.7020529 0 1.761637 0.067 0.067 0.067
v -1.19688 0 1.833383 0.067 0.067 0.067
v -0.7020529 3 1.761637 0.067 0.067 0.067
v -1.19688 3 1.833383 0.067 0.067 0.067
v -3 0 0 1 1 1
v -3 0 0 0.067 0.067 0.067
v -3 3 0 0.067 0.067 0.067
v -2.051822 0 -1.630996E-07 0.067 0.067 0.067
v -2.051822 3 -1.630996E-07 0.067 0.067 0.067
v -1 0 0 1 1 1
v -0.7020529 0 1.761637 1 1 1
v -1.19688 0 1.833383 1 1 1
v -1 3 0 0.067 0.067 0.067
v -1 0 0 0.067 0.067 0.067
v -1 0 -0.5 0.067 0.067 0.067
v -1 3 -0.5 0.067 0.067 0.067
v -1 3 0 1 0.522 0.106
v -3 3 0 1 0.522 0.106
v -1 4 0 1 0.522 0.106
v 0 4 0 1 0.522 0.106
v -4 3 0 1 0.522 0.106
v -4 4 0 1 0.522 0.106
v -3 4 0 1 0.522 0.106
v -3 0 0 1 0.522 0.106
v -4 0 0 1 0.522 0.106
v 0 3 0 1 0.522 0.106
v 0 0 0 1 0.522 0.106
v -1 0 0 1 0.522 0.106

vt 3.092215E-07 0
vt -0.9999999 0
vt 3.092215E-07 3
vt -0.9999999 3
vt -3 0
vt -4.000001 0
vt -3 3
vt -4.000001 3
vt 3.092215E-07 4
vt -0.9999999 4
vt -3 4
vt -4.000001 4
vt -1 3
vt -1 4
vt 1 0
vt 1 3
vt 4 0
vt 3 0
vt 4 3
vt 3 3
vt 1 4
vt 4 4
vt 3 4
vt -1 0
vt -3 -0.5
vt -1 -0.5
vt 0.5000002 0
vt 0.5000002 3
vt -0.9475703 0
vt -1.447572 0
vt -0.9475703 3
vt -1.447572 3
vt -2.051822 -0.5000002
vt -2.051822 -1.630996E-07
vt 3 3
vt 3 0
vt 2.051822 3
vt 2.051822 0
vt -2.051822 3
vt 3 -0.5
vt 2.051822 -0.5000002
vt 1 -0.5
vt 0.7020529 1.761637
vt 1.19688 1.833383
vt 0.1667625 3
vt 0.1667625 0
vt -1.619892 3
vt -1.619892 0
vt -0.4141529 0
vt -0.4141529 3
vt 1.927522 0
vt 1.927522 3
vt -1 0.3484842
vt -3 0.3484845
vt 1 0.3484842
vt -1.845938E-07 0.3484846
vt 0.3484955 3
vt 0.3484955 4
vt 3 0.3484845
vt 4.000001 0.3484846
vt -4.000001 0.3484846
vt -0.3484886 3
vt -0.3484886 0
vt 0.3484955 0
vt -0.3484846 4

vn -3.576278E-07 0 1
vn 0 0 -1
vn 0 -1 0
vn 1 0 0
vn 0.1434931 0 0.9896513
vn 0 1 0
vn 0 0 0
vn 0.9859971 0 -0.1667625
vn -0.9964593 0 -0.08407673
vn -1 0 -2.736632E-06

usemtl ProBuilderDefault
f 3/3/1 4/4/1 2/2/1 1/1/1
f 7/7/1 8/8/1 6/6/1 5/5/1
f 9/9/1 10/10/1 4/4/1 3/3/1
f 11/11/1 12/12/1 8/8/1 7/7/1
f 10/14/1 11/11/1 7/7/1 4/13/1
f 15/16/2 16/3/2 14/1/2 13/15/2
f 19/19/2 20/20/2 18/18/2 17/17/2
f 21/21/2 22/9/2 16/3/2 15/16/2
f 23/22/2 24/23/2 20/20/2 19/19/2
f 24/23/2 21/21/2 15/16/2 20/20/2
f 20/25/3 15/26/3 26/24/3 25/5/3
f 29/28/4 30/3/4 28/1/4 27/27/4
f 33/31/5 34/32/5 32/30/5 31/29/5
f 27/33/3 28/34/3 35/5/3 18/25/3
f 29/37/2 27/38/2 18/36/2 20/35/2
f 38/34/1 39/39/1 37/7/1 36/5/1
f 30/38/6 29/41/6 20/40/6 25/18/6
f 41/43/7 42/44/3 13/42/7 40/15/6
f 33/47/8 31/48/8 44/46/8 43/45/8
f 32/51/9 34/52/9 46/50/9 45/49/9
f 34/44/6 33/43/6 43/15/6 46/42/6
f 4/53/3 7/54/3 48/5/3 47/24/3
f 10/55/6 9/56/6 50/1/6 49/15/6
f 8/57/10 12/58/10 52/9/10 51/3/10
f 11/59/6 10/55/6 49/15/6 53/18/6
f 12/60/6 11/59/6 53/18/6 52/17/6
f 5/54/3 6/61/3 55/6/3 54/5/3
f 7/62/4 5/63/4 54/1/4 48/3/4
f 6/64/10 8/57/10 51/3/10 55/1/10
f 9/65/4 3/62/4 56/3/4 50/9/4
f 1/56/3 2/53/3 58/24/3 57/1/3
f 3/62/4 1/63/4 57/1/4 56/3/4
f 2/64/10 4/57/10 47/3/10 58/1/10

