# ProBuilder 4.2.3
# https://unity3d.com/unity/features/worldbuilding/probuilder
# 11/30/2021 6:32:42 PM

mtllib ./Truck_(3).mtl
o Truck (3)

g Truck (3)
v -1 0 0 1 0.255 0.212
v -1 0 -1 1 0.255 0.212
v -1 1 0 1 0.255 0.212
v -1 1 -1 1 0.255 0.212
v 0 0 -1 1 0.255 0.212
v 0 0 0 1 0.255 0.212
v 0 1 -1 1 0.255 0.212
v 0 1 0 1 0.255 0.212
v 0 0 1.996127 1 0.255 0.212
v -0.5 0 1.996127 1 0.255 0.212
v -0.5 1.196156 1.996127 1 0.255 0.212
v 0 1 1.996127 1 0.255 0.212
v -1 0 1.996127 1 0.255 0.212
v -1 1 1.996127 1 0.255 0.212
v -0.5 0 -1 1 0.255 0.212
v -0.5 1 -1 1 0.255 0.212
v -0.5 1 0 1 0.255 0.212
v -0.5 0 0 1 0.255 0.212
v 0 1 0.9992481 1 0.255 0.212
v 0 0 0.9992481 1 0.255 0.212
v 0 0 1.497688 1 0.255 0.212
v 0 1 1.497688 1 0.255 0.212
v -1 0 0.9992481 1 0.255 0.212
v -1 1 0.9992481 1 0.255 0.212
v -1 1 1.497688 1 0.255 0.212
v -1 0 1.497688 1 0.255 0.212
v -0.5 0 0.9992481 1 0.255 0.212
v -0.5 0 1.497688 1 0.255 0.212
v -0.5 1.196156 0.9992481 1 0.255 0.212
v -0.5 1.196156 1.497688 1 0.255 0.212
v 0 0 0.4996241 1 0.255 0.212
v 0 1 0.4996241 1 0.255 0.212
v -1 1 0.4996241 1 0.255 0.212
v -1 0 0.4996241 1 0.255 0.212
v -0.5 0 0.4996241 1 0.255 0.212
v -1 1.652578 0 1 0.255 0.212
v -0.5 1.652578 0 1 0.255 0.212
v -0.5 1.652578 0.4996241 1 0.255 0.212
v -1 1.652578 0.4996241 1 0.255 0.212
v -0.5 1.652578 0.9992481 1 0.255 0.212
v -1 1.652578 0.9992481 1 0.255 0.212
v 0 1.652578 0 1 0.255 0.212
v 0 1.652578 0.4996241 1 0.255 0.212
v 0 1.652578 0.9992481 1 0.255 0.212
v -0.5 1.508973 0 1 0.255 0.212
v -1 1.508973 0 1 0.255 0.212
v 0 1.508973 0 1 0.255 0.212
v -0.5 1.607051 0.9992481 1 0.255 0.212
v 0 1.508973 0.9992481 1 0.255 0.212
v -1 1.508973 0.9992481 1 0.255 0.212
v -1 1.508973 0.4996241 1 0.255 0.212
v 0 1.508973 0.4996241 1 0.255 0.212
v -0.5 1.156903 0 1 0.255 0.212
v -1 1.156903 0 1 0.255 0.212
v -0.5 1.156903 0 0.667 0.667 0.667
v -0.5 1.508973 0 0.667 0.667 0.667
v -1 1.508973 0 0.667 0.667 0.667
v -1 1.156903 0 0.667 0.667 0.667
v 0 1.156903 0 1 0.255 0.212
v 0 1.156903 0 0.667 0.667 0.667
v 0 1.508973 0 0.667 0.667 0.667
v 0 1.508973 0.9992481 0.667 0.667 0.667
v 0 1.156903 0.9992481 0.667 0.667 0.667
v -0.5 1.30402 0.9992481 0.667 0.667 0.667
v -0.5 1.607051 0.9992481 0.667 0.667 0.667
v 0 1.156903 0.9992481 1 0.255 0.212
v -0.5 1.30402 0.9992481 1 0.255 0.212
v -1 1.156903 0.9992481 1 0.255 0.212
v -1 1.156903 0.9992481 0.667 0.667 0.667
v -1 1.508973 0.9992481 0.667 0.667 0.667
v -1 1.156903 0.4996241 1 0.255 0.212
v -1 1.156903 0.4996241 0.667 0.667 0.667
v -1 1.508973 0.4996241 0.667 0.667 0.667
v 0 1.156903 0.4996241 1 0.255 0.212
v 0 1.156903 0.4996241 0.667 0.667 0.667
v 0 1.508973 0.4996241 0.667 0.667 0.667

vt 0 0
vt -1 0
vt 0 1
vt -1 1
vt 1 0
vt 1 1
vt -0.5 0
vt -0.5 1.196156
vt 0.5 0
vt 0.5 1
vt 0.5 -1
vt 0 -1
vt 1 -1
vt -0.5 -1
vt -1 -1
vt -0.9992481 1
vt -0.9992481 0
vt -1.497688 0
vt -1.497688 1
vt -1.996127 0
vt -1.996127 1
vt 0.9992481 0
vt 0.9992481 1
vt 1.497688 1
vt 1.497688 0
vt 1.996127 1
vt 1.996127 0
vt -0.5 0.9992481
vt -0.5 1.497688
vt 0 1.497688
vt 0 0.9992481
vt -0.5 1.996127
vt 0 1.996127
vt -1 0.9992481
vt -1 1.497688
vt -1 1.996127
vt 1 0.9992481
vt 0.5 0.9992481
vt 0.5 1.497688
vt 1 1.497688
vt 0.5 1.996127
vt 1 1.996127
vt -0.4996241 0
vt -0.4996241 1
vt 0.4996241 1
vt 0.4996241 0
vt -0.5 0.4996241
vt 0 0.4996241
vt -1 0.4996241
vt 0.5 0.4996241
vt 1 0.4996241
vt 0.5 1.508973
vt 0.5 1.652578
vt 1 1.652578
vt 1 1.508973
vt 0 1.508973
vt 0 1.652578
vt -0.5 1.607051
vt -0.5 1.652578
vt -1 1.508973
vt -1 1.652578
vt 0.4996241 1.508973
vt 0.4996241 1.652578
vt 0.9992481 1.652578
vt 0.9992481 1.508973
vt -0.4996241 1.508973
vt -0.4996241 1.652578
vt -0.9992481 1.508973
vt -0.9992481 1.652578
vt 0.5 1.156903
vt 1 1.156903
vt 0 1.156903
vt -0.5 1.30402
vt -1 1.156903
vt 0.4996241 1.156903
vt 0.9992481 1.156903
vt -0.4996241 1.156903
vt -0.9992481 1.156903

vn -1 0 0
vn 1 0 0
vn 0 0 1
vn 0 0 -1
vn 0 1 0
vn 0 -1 0
vn -0.3652124 0.9309242 0
vn 0.3652124 0.9309242 0

usemtl ProBuilderDefault
f 3/3/1 4/4/1 2/2/1 1/1/1
f 7/6/2 8/3/2 6/1/2 5/5/2
f 12/3/3 11/8/3 10/7/3 9/1/3
f 11/8/3 14/4/3 13/2/3 10/7/3
f 2/5/4 4/6/4 16/10/4 15/9/4
f 15/9/4 16/10/4 7/3/4 5/1/4
f 17/9/5 8/1/5 7/12/5 16/11/5
f 3/5/5 17/9/5 16/11/5 4/13/5
f 5/12/6 6/1/6 18/7/6 15/14/6
f 15/14/6 18/7/6 1/2/6 2/15/6
f 21/18/2 20/17/2 19/16/2 22/19/2
f 9/20/2 21/18/2 22/19/2 12/21/2
f 25/24/1 24/23/1 23/22/1 26/25/1
f 14/26/1 25/24/1 26/25/1 13/27/1
f 20/31/6 21/30/6 28/29/6 27/28/6
f 21/30/6 9/33/6 10/32/6 28/29/6
f 27/28/6 28/29/6 26/35/6 23/34/6
f 28/29/6 10/32/6 13/36/6 26/35/6
f 25/40/7 30/39/7 29/38/7 24/37/7
f 14/42/7 11/41/7 30/39/7 25/40/7
f 30/39/8 22/30/8 19/31/8 29/38/8
f 11/41/8 12/33/8 22/30/8 30/39/8
f 6/1/2 8/3/2 32/44/2 31/43/2
f 31/43/2 32/44/2 19/16/2 20/17/2
f 33/45/1 3/3/1 1/1/1 34/46/1
f 24/23/1 33/45/1 34/46/1 23/22/1
f 6/1/6 31/48/6 35/47/6 18/7/6
f 31/48/6 20/31/6 27/28/6 35/47/6
f 18/7/6 35/47/6 34/49/6 1/2/6
f 35/47/6 27/28/6 23/34/6 34/49/6
f 39/51/5 38/50/5 37/9/5 36/5/5
f 41/37/5 40/38/5 38/50/5 39/51/5
f 38/50/5 43/48/5 42/1/5 37/9/5
f 40/38/5 44/31/5 43/48/5 38/50/5
f 46/55/4 36/54/4 37/53/4 45/52/4
f 45/52/4 37/53/4 42/57/4 47/56/4
f 44/57/3 40/59/3 48/58/3 49/56/3
f 40/59/3 41/61/3 50/60/3 48/58/3
f 41/64/1 39/63/1 51/62/1 50/65/1
f 39/63/1 36/57/1 46/56/1 51/62/1
f 47/56/2 42/57/2 43/67/2 52/66/2
f 52/66/2 43/67/2 44/69/2 49/68/2
f 3/6/4 54/71/4 53/70/4 17/10/4
f 58/71/4 57/55/4 56/52/4 55/70/4
f 17/10/4 53/70/4 59/72/4 8/3/4
f 55/70/4 56/52/4 61/56/4 60/72/4
f 65/58/3 64/73/3 63/72/3 62/56/3
f 67/73/3 29/8/3 19/3/3 66/72/3
f 67/73/3 68/74/3 24/4/3 29/8/3
f 65/58/3 70/60/3 69/74/3 64/73/3
f 68/76/1 71/75/1 33/45/1 24/23/1
f 70/65/1 73/62/1 72/75/1 69/76/1
f 71/75/1 54/72/1 3/3/1 33/45/1
f 73/62/1 57/56/1 58/72/1 72/75/1
f 8/3/2 59/72/2 74/77/2 32/44/2
f 60/72/2 61/56/2 76/66/2 75/77/2
f 32/44/2 74/77/2 66/78/2 19/16/2
f 75/77/2 76/66/2 62/68/2 63/78/2

