# ProBuilder 4.2.3
# https://unity3d.com/unity/features/worldbuilding/probuilder
# 11/30/2021 6:32:42 PM

mtllib ./Wheel_(3).mtl
o Wheel (3)

g Wheel (3)
v 0 0 0 0.067 0.067 0.067
v 0 2 0 0.067 0.067 0.067
v 0.03806025 0 0.1913417 0.067 0.067 0.067
v 0.03806025 2 0.1913417 0.067 0.067 0.067
v 0.1464466 0 0.3535534 0.067 0.067 0.067
v 0.1464466 2 0.3535534 0.067 0.067 0.067
v 0.3086583 0 0.4619398 0.067 0.067 0.067
v 0.3086583 2 0.4619398 0.067 0.067 0.067
v 0.5 0 0.5 0.067 0.067 0.067
v 0.5 2 0.5 0.067 0.067 0.067
v 0.6913417 0 0.4619398 0.067 0.067 0.067
v 0.6913417 2 0.4619398 0.067 0.067 0.067
v 0.8535534 0 0.3535534 0.067 0.067 0.067
v 0.8535534 2 0.3535534 0.067 0.067 0.067
v 0.9619398 0 0.1913417 0.067 0.067 0.067
v 0.9619398 2 0.1913417 0.067 0.067 0.067
v 1 0 -4.371139E-08 0.067 0.067 0.067
v 1 2 -4.371139E-08 0.067 0.067 0.067
v 0.9619398 0 -0.1913417 0.067 0.067 0.067
v 0.9619398 2 -0.1913417 0.067 0.067 0.067
v 0.8535534 0 -0.3535534 0.067 0.067 0.067
v 0.8535534 2 -0.3535534 0.067 0.067 0.067
v 0.6913418 0 -0.4619398 0.067 0.067 0.067
v 0.6913418 2 -0.4619398 0.067 0.067 0.067
v 0.5 0 -0.5 0.067 0.067 0.067
v 0.5 2 -0.5 0.067 0.067 0.067
v 0.3086582 0 -0.4619397 0.067 0.067 0.067
v 0.3086582 2 -0.4619397 0.067 0.067 0.067
v 0.1464467 0 -0.3535534 0.067 0.067 0.067
v 0.1464467 2 -0.3535534 0.067 0.067 0.067
v 0.03806022 0 -0.1913417 0.067 0.067 0.067
v 0.03806022 2 -0.1913417 0.067 0.067 0.067
v 0.5 0 0 0.067 0.067 0.067
v 0.5 2 0 0.067 0.067 0.067

vt 0 0
vt 0 2
vt 0.1950903 0
vt 0.1950903 2
vt 0.18024 0
vt 0.18024 2
vt 0.3753303 0
vt 0.3753303 2
vt 0.3181897 0
vt 0.3181897 2
vt 0.51328 0
vt 0.51328 2
vt 0.3928475 0
vt 0.3928475 2
vt 0.5879378 0
vt 0.5879378 2
vt -0.1950904 0
vt -0.1950904 2
vt -0.3753302 0
vt -0.3753302 2
vt -0.1802399 0
vt -0.1802399 2
vt -0.5132799 0
vt -0.5132799 2
vt -0.3181896 0
vt -0.3181896 2
vt -0.5879378 0
vt -0.5879378 2
vt -0.3928474 0
vt -0.3928474 2
vt 0.5 0
vt 0.03806025 0.1913417
vt -0.5 0
vt -0.03806025 0.1913417
vt 0.1464466 0.3535534
vt -0.1464466 0.3535534
vt 0.3086583 0.4619398
vt -0.3086583 0.4619398
vt 0.5 0.5
vt -0.5 0.5
vt 0.6913417 0.4619398
vt -0.6913417 0.4619398
vt 0.8535534 0.3535534
vt -0.8535534 0.3535534
vt 0.9619398 0.1913417
vt -0.9619398 0.1913417
vt 1 -4.371139E-08
vt -1 -4.371139E-08
vt 0.9619398 -0.1913417
vt -0.9619398 -0.1913417
vt 0.8535534 -0.3535534
vt -0.8535534 -0.3535534
vt 0.6913418 -0.4619398
vt -0.6913418 -0.4619398
vt 0.5 -0.5
vt -0.5 -0.5
vt 0.3086582 -0.4619397
vt -0.3086582 -0.4619397
vt 0.1464467 -0.3535534
vt -0.1464467 -0.3535534
vt 0.03806022 -0.1913417
vt -0.03806022 -0.1913417

vn -1 0 6.836892E-08
vn -0.9238795 0 0.3826835
vn -0.7071068 0 0.7071068
vn -0.3826835 0 0.9238795
vn -7.596547E-08 0 1
vn 0.3826834 0 0.9238796
vn 0.7071068 0 0.7071068
vn 0.9238795 0 0.3826834
vn 1 0 -6.077237E-08
vn 0.9238795 0 -0.3826835
vn 0.7071069 0 -0.7071067
vn 0.3826835 0 -0.9238795
vn -4.557928E-08 0 -1
vn -0.3826835 0 -0.9238795
vn -0.7071068 0 -0.7071068
vn -0.9238795 0 -0.3826835
vn 0 -1 0
vn 0 1 0

usemtl ProBuilderDefault
f 1/1/17 33/31/17 3/32/17
f 3/32/17 33/31/17 5/35/17
f 5/35/17 33/31/17 7/37/17
f 7/37/17 33/31/17 9/39/17
f 9/39/17 33/31/17 11/41/17
f 11/41/17 33/31/17 13/43/17
f 13/43/17 33/31/17 15/45/17
f 15/45/17 33/31/17 17/47/17
f 17/47/17 33/31/17 19/49/17
f 19/49/17 33/31/17 21/51/17
f 21/51/17 33/31/17 23/53/17
f 23/53/17 33/31/17 25/55/17
f 25/55/17 33/31/17 27/57/17
f 27/57/17 33/31/17 29/59/17
f 29/59/17 33/31/17 31/61/17
f 31/61/17 33/31/17 1/1/17
f 4/34/18 34/33/18 2/1/18
f 6/36/18 34/33/18 4/34/18
f 8/38/18 34/33/18 6/36/18
f 10/40/18 34/33/18 8/38/18
f 12/42/18 34/33/18 10/40/18
f 14/44/18 34/33/18 12/42/18
f 16/46/18 34/33/18 14/44/18
f 18/48/18 34/33/18 16/46/18
f 20/50/18 34/33/18 18/48/18
f 22/52/18 34/33/18 20/50/18
f 24/54/18 34/33/18 22/52/18
f 26/56/18 34/33/18 24/54/18
f 28/58/18 34/33/18 26/56/18
f 30/60/18 34/33/18 28/58/18
f 32/62/18 34/33/18 30/60/18
f 2/1/18 34/33/18 32/62/18
f 4/4/2 2/2/1 1/1/1
f 1/1/1 3/3/2 4/4/2
f 6/8/3 4/6/2 3/5/2
f 3/5/2 5/7/3 6/8/3
f 8/12/4 6/10/3 5/9/3
f 5/9/3 7/11/4 8/12/4
f 10/16/5 8/14/4 7/13/4
f 7/13/4 9/15/5 10/16/5
f 12/16/6 10/14/5 9/13/5
f 9/13/5 11/15/6 12/16/6
f 14/12/7 12/10/6 11/9/6
f 11/9/6 13/11/7 14/12/7
f 16/8/8 14/6/7 13/5/7
f 13/5/7 15/7/8 16/8/8
f 18/4/9 16/2/8 15/1/8
f 15/1/8 17/3/9 18/4/9
f 20/2/10 18/18/9 17/17/9
f 17/17/9 19/1/10 20/2/10
f 22/22/11 20/20/10 19/19/10
f 19/19/10 21/21/11 22/22/11
f 24/26/12 22/24/11 21/23/11
f 21/23/11 23/25/12 24/26/12
f 26/30/13 24/28/12 23/27/12
f 23/27/12 25/29/13 26/30/13
f 28/30/14 26/28/13 25/27/13
f 25/27/13 27/29/14 28/30/14
f 30/26/15 28/24/14 27/23/14
f 27/23/14 29/25/15 30/26/15
f 32/22/16 30/20/15 29/19/15
f 29/19/15 31/21/16 32/22/16
f 2/2/1 32/18/16 31/17/16
f 31/17/16 1/1/1 2/2/1

